<?xml version="1.0" encoding="utf-8"?>
<!-- Generator: Adobe Illustrator 23.0.4, SVG Export Plug-In . SVG Version: 6.00 Build 0)  -->
<svg version="1.1" id="Capa_1" xmlns="http://www.w3.org/2000/svg" xmlns:xlink="http://www.w3.org/1999/xlink" x="0px" y="0px"
	 viewBox="0 0 641 121" style="enable-background:new 0 0 641 121;" xml:space="preserve">
<style type="text/css">
	.st0{fill:#1EA88B;}
	.st1{fill:#FFFFFF;}
	.st2{fill:#454E5C;}
</style>
<path class="st0" d="M92.5,110h-63c-8.6,0-15.5-6.9-15.5-15.5v-63C14,22.9,20.9,16,29.5,16h63c8.6,0,15.5,6.9,15.5,15.5v63
	C108,103.1,101.1,110,92.5,110z"/>
<g>
	<path class="st1" d="M82.8,78.9c-2.9,1.2-6.3-0.1-7.6-3l-9.5-20.2c-1.2-2.9,0.1-6.3,3-7.5s6.3,0.1,7.6,3l9.5,20.3
		C87,74.3,85.7,77.7,82.8,78.9 M63.8,78.9c-2.9,1.2-6.3-0.1-7.6-3l-9.5-20.2c-0.6-1.4-0.6-3-0.1-4.3c0.5-1.4,1.6-2.5,3-3.2
		c0.7-0.3,1.4-0.5,2.1-0.5h0.1c0.1,0,0.1,0,0.2,0s0.1,0,0.2,0h0.1c0.7,0,1.4,0.2,2.1,0.5c1.5,0.7,2.6,1.8,3,3.2l9.4,20
		C68,74.3,66.7,77.7,63.8,78.9 M47.8,75.9c-1.2,2.9-4.6,4.2-7.6,3s-4.2-4.6-3-7.5l5.2-11.2l6.3,13.5L47.8,75.9z M91,69.1l-9.5-20.2
		c-2.6-5.7-9.3-8.4-15.1-5.8c-2.1,0.9-3.7,2.3-4.9,4l0,0c-2.1-3.1-5.5-4.8-9.1-5h-0.1c-0.1,0-0.2,0-0.3,0s-0.2,0-0.4,0
		c-0.1,0-0.1,0-0.1,0c-4.2,0.2-8.3,2.7-10.1,6.8L32,69c-2.6,5.7,0.1,12.5,5.9,15C43,86.2,49,84.4,52,80c3,4.4,8.9,6.3,14.1,4
		c2.1-0.9,3.7-2.3,4.9-4.1c3,4.4,9,6.3,14.1,4.1C91,81.6,93.6,74.9,91,69.1"/>
</g>
<path class="st2" d="M297.9,81L284,45c-0.3-0.7-0.8-0.9-1.4-0.9h-10.1c-0.7,0-1.2,0.5-1.5,1.1L257.1,81c-0.4,0.8,0.2,2.1,1.4,2.1
	h8.8c0.6,0,1.2-0.4,1.5-1c0.3-0.7,2.3-6,2.3-6h13l2.3,6c0.2,0.7,0.7,1,1.5,1h8.8C297.6,83,298.2,81.8,297.9,81 M273.1,68l4.5-12
	l4.2,12H273.1z"/>
<path class="st2" d="M167.5,44h-7c-0.4,0-0.9,0.2-1.3,0.8c-0.3,0.6-10.2,17.3-10.2,17.3c-0.2,0.3-0.6,0.5-0.9,0.5s-0.7-0.2-1-0.5
	c0,0-9.9-16.6-10.2-17.2c-0.3-0.6-0.9-0.8-1.3-0.8H127V83h11V68.5c0-0.4,0.5-0.5,0.7-0.2c0,0,8.2,9.9,8.4,10.2
	c0.2,0.3,0.6,0.4,0.9,0.4s0.7-0.2,0.9-0.4c0.2-0.3,8.4-10.2,8.4-10.2c0.2-0.3,0.7-0.2,0.7,0.2V83h10.8V45.2
	C168.7,44.5,168.1,44,167.5,44"/>
<path class="st2" d="M180.1,44h27.8c0.6,0,1.1,0.5,1.1,1.1v7.8h-16c-1.2,0-2,1.1-2,2v4h10v8.9h-10V74h18.8v9H180L180.1,44z"/>
<path class="st2" d="M250.5,65h-7.9c-0.8,0-1.5,0.7-1.5,1.6v4.9c-1,0.8-4.5,2.5-8.5,0.9c-3.5-1.4-6.6-4.8-6.6-8.9
	c0-4.8,3.7-9,8.5-9.6c2.4-0.3,4.8,0.7,6.5,1.9c0.8,0.5,1.6,0.8,2.4,0.1l5.7-6c0.6-0.6,0.6-1.3-0.2-2c-3.5-2.9-8.2-4.9-13.4-4.9
	c-11.4,0-20.6,9.2-20.6,20.5S224.2,84,235.6,84c9.8,0,16.4-7.3,16.4-8.3v-9.2C252,65.7,251.3,65,250.5,65z"/>
<path class="st2" d="M305.1,45.1c0-0.3,0.1-0.6,0.3-0.8c0.2-0.2,0.5-0.3,0.9-0.3h8.7c0.2,0,0.5,0.1,0.8,0.2c0.3,0.1,0.5,0.3,0.7,0.6
	c2.2,3.6,4.5,7.1,6.8,10.6c2.2,3.4,4.6,7,6.9,10.6V45c0.1-0.3,0.2-0.5,0.4-0.7c0.2-0.2,0.4-0.3,0.7-0.3h7.5c0.4,0,0.7,0.1,0.9,0.3
	c0.2,0.2,0.4,0.5,0.4,0.9v36.7c0,0.3-0.1,0.6-0.3,0.8c-0.2,0.2-0.5,0.3-0.9,0.3h-8.5c-0.2,0-0.4-0.1-0.6-0.2
	c-0.2-0.2-0.4-0.4-0.6-0.6c-2.3-3.8-4.7-7.7-7-11.4c-2.3-3.8-4.7-7.5-7-11.4v22.5c0,0.4-0.1,0.7-0.3,0.9c-0.2,0.2-0.5,0.3-0.9,0.3
	h-7.6c-0.4,0-0.7-0.1-0.9-0.3c-0.2-0.2-0.3-0.5-0.3-0.8L305.1,45.1L305.1,45.1z"/>
<path class="st2" d="M347,63.5c0-1.9,0.2-3.7,0.7-5.4s1.2-3.4,2.1-4.9s2-2.9,3.2-4.1c1.2-1.2,2.6-2.3,4.2-3.2
	c1.5-0.9,3.1-1.6,4.9-2.1c1.7-0.5,3.6-0.7,5.4-0.7c1.9,0,3.7,0.2,5.4,0.7c1.7,0.5,3.4,1.2,4.9,2.1c1.5,0.9,2.9,2,4.2,3.2
	c1.2,1.2,2.3,2.6,3.2,4.1c0.9,1.5,1.6,3.1,2.1,4.9c0.5,1.7,0.7,3.6,0.7,5.4c0,1.9-0.2,3.7-0.7,5.4c-0.5,1.7-1.2,3.4-2.1,4.9
	s-2,2.9-3.2,4.1s-2.6,2.3-4.2,3.2c-1.5,0.9-3.1,1.6-4.9,2.1c-1.7,0.5-3.6,0.7-5.4,0.7c-1.9,0-3.7-0.2-5.4-0.7
	c-1.7-0.5-3.4-1.2-4.9-2.1s-2.9-2-4.2-3.2c-1.2-1.2-2.3-2.6-3.2-4.1s-1.6-3.1-2.1-4.9C347.3,67.2,347,65.4,347,63.5z M356,63.6
	c0,1.6,0.3,3.1,0.8,4.5c0.6,1.4,1.3,2.6,2.4,3.6c1,1,2.2,1.8,3.6,2.4s2.9,0.9,4.6,0.9s3.2-0.3,4.6-0.9s2.6-1.4,3.6-2.4
	s1.8-2.2,2.4-3.6s0.8-2.9,0.8-4.5s-0.3-3.1-0.8-4.5c-0.6-1.4-1.3-2.6-2.4-3.7c-1-1-2.2-1.9-3.6-2.5s-2.9-0.9-4.6-0.9
	s-3.2,0.3-4.6,0.9s-2.6,1.4-3.6,2.5c-1,1-1.8,2.2-2.4,3.7C356.3,60.5,356,62,356,63.6z"/>
<path class="st2" d="M391,44.3c0-0.3,0.1-0.6,0.3-0.9c0.2-0.2,0.6-0.3,0.9-0.3h28.5c0.3,0,0.6,0.1,0.8,0.3c0.2,0.2,0.4,0.5,0.4,0.9
	v7.3c0,0.3-0.1,0.6-0.3,0.9c-0.2,0.3-0.6,0.5-0.9,0.5h-8.8v29.7c0,0.3-0.1,0.6-0.3,0.9c-0.2,0.3-0.6,0.4-0.9,0.4h-8.5
	c-0.3,0-0.6-0.1-0.8-0.3c-0.3-0.2-0.4-0.6-0.4-0.9V53h-8.7c-0.3,0-0.7-0.1-0.9-0.3c-0.2-0.2-0.3-0.6-0.3-1L391,44.3L391,44.3z"/>
<path class="st2" d="M429,44.3c0-0.3,0.1-0.6,0.3-0.9c0.2-0.2,0.5-0.3,0.9-0.3h7.6c0.3,0,0.5,0.1,0.8,0.3s0.4,0.5,0.4,0.9v38.5
	c0,0.8-0.4,1.2-1.2,1.2h-7.6c-0.8,0-1.1-0.4-1.1-1.2L429,44.3L429,44.3z"/>
<path class="st2" d="M478.5,46.4c0.3,0.2,0.5,0.4,0.7,0.7s0.1,0.6-0.1,1l-4.6,6.5c-0.2,0.3-0.4,0.5-0.6,0.5
	c-0.2,0.1-0.5-0.1-0.8-0.2c-0.9-0.7-1.9-1.2-2.9-1.5c-1.1-0.3-2.2-0.6-3.4-0.6c-1.5,0-2.8,0.3-4.1,0.8c-1.2,0.6-2.3,1.3-3.2,2.3
	c-0.9,1-1.6,2.1-2.1,3.4s-0.7,2.7-0.7,4.2c0,1.5,0.2,2.9,0.7,4.1c0.5,1.3,1.2,2.4,2.1,3.4s2,1.7,3.2,2.2c1.2,0.6,2.6,0.8,4.1,0.8
	c1.2,0,2.3-0.2,3.4-0.6s2.1-0.9,2.9-1.6c0.3-0.2,0.6-0.3,0.8-0.2c0.2,0.1,0.5,0.2,0.6,0.5l4.6,6.6c0.2,0.4,0.2,0.7,0.1,1
	c-0.2,0.3-0.4,0.5-0.7,0.7c-1.7,1.1-3.5,2-5.5,2.6s-4,1-6.2,1c-1.9,0-3.7-0.2-5.5-0.7s-3.4-1.2-4.9-2.1s-2.9-2-4.2-3.2
	c-1.2-1.2-2.3-2.6-3.2-4.2c-0.9-1.5-1.6-3.1-2.1-4.9c-0.5-1.7-0.7-3.6-0.7-5.4c0-1.9,0.2-3.7,0.7-5.4s1.2-3.4,2.1-4.9s2-2.9,3.2-4.2
	c1.2-1.2,2.7-2.3,4.2-3.2s3.2-1.6,4.9-2.1c1.8-0.5,3.6-0.7,5.5-0.7c2.2,0,4.2,0.3,6.1,0.9C475,44.4,476.8,45.3,478.5,46.4z"/>
<path class="st2" d="M486,44.3c0-0.3,0.1-0.6,0.3-0.9c0.2-0.2,0.5-0.3,0.9-0.3h7.6c0.3,0,0.5,0.1,0.8,0.3s0.4,0.5,0.4,0.9v38.5
	c0,0.8-0.4,1.2-1.2,1.2h-7.6c-0.8,0-1.1-0.4-1.1-1.2L486,44.3L486,44.3z"/>
<path class="st2" d="M516.6,44.2c0-0.1,0.1-0.2,0.2-0.3c0.1-0.1,0.2-0.2,0.3-0.3c0.2-0.1,0.3-0.2,0.5-0.3s0.3-0.1,0.5-0.1h6.9
	c0.3,0,0.6,0.1,0.8,0.3s0.4,0.3,0.5,0.5l0.7,1.6l14.2,37.3c0.2,0.3,0.1,0.7-0.1,0.9c-0.2,0.2-0.6,0.3-1,0.3h-7.8
	c-0.4,0-0.7-0.1-1-0.2c-0.2-0.2-0.4-0.4-0.5-0.8c-0.3-0.9-0.7-2.3-1-3.3c-0.3-0.9-0.7-1.8-1-2.8h-14.4c-0.3,0.9-0.7,1.8-1,2.8
	c-0.3,0.9-0.7,2.3-1,3.3c-0.2,0.7-0.7,1-1.4,1h-8c-0.3,0-0.6-0.1-0.8-0.3c-0.2-0.2-0.3-0.5-0.1-0.8L516.6,44.2z M521.5,56
	c-0.3,0.9-0.7,2-1,3.1s-0.7,2.3-1,3.4c-0.3,1.1-0.7,2.3-1,3.4s-0.7,2.1-1,3.1h8.3L521.5,56z"/>
<path class="st2" d="M549.8,70.5c0.3,0.2,0.7,0.6,1.2,1s1,0.9,1.6,1.3c0.9,0.6,1.8,1.1,2.7,1.4s1.9,0.5,2.8,0.5
	c0.9,0,1.7-0.1,2.3-0.3c0.6-0.2,1.1-0.5,1.5-0.9c0.3-0.3,0.6-0.7,0.8-1.2C563,72,563,71.5,563,71c0-0.6-0.2-1.1-0.6-1.5
	c-0.4-0.5-1-0.9-1.6-1.2c-0.6-0.3-1.2-0.6-1.9-0.9c-0.7-0.2-1.2-0.5-1.8-0.6c-2.2-0.7-4.1-1.6-5.7-2.5c-1.6-0.9-3-1.9-4.1-3
	s-1.9-2.3-2.4-3.6s-0.8-2.7-0.8-4.3c0-1.7,0.3-3.2,1-4.6c0.7-1.4,1.6-2.6,2.9-3.5s2.8-1.7,4.5-2.3c1.8-0.5,3.7-0.8,5.9-0.8
	c1.6,0,3.2,0.2,4.7,0.6c1.5,0.4,3,1,4.5,1.8c0.6,0.3,1.2,0.7,1.8,1.1c0.6,0.4,1,0.7,1.5,1.1c0.4,0.3,0.7,0.7,1,1
	c0.2,0.3,0.3,0.6,0.3,0.9s-0.1,0.5-0.2,0.6s-0.3,0.4-0.5,0.7l-4.1,4.4c-0.3,0.3-0.6,0.5-0.9,0.5c-0.2,0-0.5-0.1-0.7-0.2
	c-0.2-0.2-0.5-0.3-0.7-0.6l-0.2-0.2c-0.3-0.3-0.7-0.6-1.2-1c-0.5-0.3-0.9-0.6-1.4-0.9c-0.5-0.3-1-0.5-1.6-0.6
	c-0.6-0.2-1.1-0.3-1.7-0.3c-0.6,0-1.1,0.1-1.7,0.2c-0.6,0.1-1,0.3-1.4,0.5s-0.7,0.5-1,0.9c-0.2,0.3-0.3,0.8-0.3,1.3s0.1,1,0.4,1.3
	c0.2,0.4,0.6,0.7,1.1,1s1.1,0.6,1.9,0.9c0.7,0.3,1.6,0.6,2.6,0.9c1.9,0.6,3.7,1.3,5.3,2s3,1.5,4.2,2.5s2.1,2.1,2.8,3.4
	c0.7,1.3,1,3,1,4.8c0,2-0.4,3.8-1.2,5.4c-0.8,1.7-1.9,3-3.3,4.2c-1.4,1.1-3.1,2.1-5,2.7s-4,1-6.2,1c-2.1,0-4.1-0.4-6.1-1.1
	s-3.9-1.8-5.6-3c-0.7-0.5-1.4-1-1.8-1.5c-0.5-0.5-0.9-0.9-1.2-1.3l-0.1-0.1c0-0.1-0.1-0.1-0.1-0.1s-0.1,0-0.1-0.1s-0.1-0.1-0.1-0.1
	s-0.1,0-0.1-0.1c-0.4-0.5-0.6-0.8-0.6-1.1c0-0.3,0.2-0.7,0.6-1l4.7-4.5c0.4-0.3,0.7-0.4,0.9-0.4s0.3,0.1,0.5,0.2
	C549.4,70.1,549.6,70.3,549.8,70.5z"/>
</svg>
